PathFileType	4	(X/Y/Z)	./resultDataOpenSim/trcMotMarkerGrf/sub10/qtm-04-04.trc
DataRate	CameraRate	NumFrames	NumMarkers	Units	OrigDataRate	OrigDataStartFrame	OrigNumFrames
250.000000	250.000000	12	24	m	250.000000	456	520
Frame#	Time	L.Toe.Tip			R.Toe.Tip			L.Ankle.Lat			R.Ankle.Lat			L.Ankle.Med			R.Ankle.Med			L.Heel			R.Heel			L.Knee.Lat			R.Knee.Lat			L.Knee.Med			R.Knee.Med			L.Thigh.Upper			R.Thigh.Upper			L.ASIS			R.ASIS			V.Sacral			L.Acromium			R.Acromium			C7			L.Elbow			R.Elbow			L.Wrist.Lat			R.Wrist.Lat
		X1	Y1	Z1	X2	Y2	Z2	X3	Y3	Z3	X4	Y4	Z4	X5	Y5	Z5	X6	Y6	Z6	X7	Y7	Z7	X8	Y8	Z8	X9	Y9	Z9	X10	Y10	Z10	X11	Y11	Z11	X12	Y12	Z12	X13	Y13	Z13	X14	Y14	Z14	X15	Y15	Z15	X16	Y16	Z16	X17	Y17	Z17	X18	Y18	Z18	X19	Y19	Z19	X20	Y20	Z20	X21	Y21	Z21	X22	Y22	Z22	X23	Y23	Z23	X24	Y24	Z24

456	1.82	1.6252138	0.12227645	-0.14664379	0.8997822	0.038028859	0.041040542	1.4932903	0.088254538	-0.17210895	0.76562316	0.076508204	0.084370886	1.498218	0.11326888	-0.092498178	0.78926149	0.098012708	-0.001485544	1.45205	0.035048097	-0.12574428	0.70891747	0.064157452	0.039847035	1.3300611	0.44662692	-0.18345753	0.96982373	0.42608883	0.11233669	1.3545526	0.42112821	-0.064469585	0.99399911	0.4234741	-0.014655254	1.1891276	0.80004673	-0.21941127	1.0698682	0.82611349	0.15737771	1.2200221	0.91152231	-0.13822341	1.1646448	0.91193454	0.10795559	0.96726122	0.91823234	-0.050137995	1.099159	1.3814141	-0.173936	1.10605	1.3726205	0.14632058	1.0205541	1.4023527	-0.016559637	0.89959862	1.1071363	-0.24151025	1.1710521	1.0269067	0.24750275	0.93860361	0.87549268	-0.33786793	1.4248122	1.0535217	0.24878871
457	1.824	1.6304567	0.12079083	-0.14755044	0.89999485	0.038101781	0.041044835	1.4984153	0.087167519	-0.17224214	0.76643815	0.078321781	0.08453571	1.50371	0.11209145	-0.092676428	0.79033803	0.099327526	-0.00139437	1.4572533	0.034162567	-0.12622012	0.70960814	0.066479063	0.039973923	1.3369415	0.44635016	-0.18380285	0.97378876	0.42575121	0.11187699	1.3614868	0.42111919	-0.065011042	0.99884209	0.42257502	-0.014965939	1.1955875	0.79964812	-0.22004648	1.0748328	0.82540774	0.15626981	1.2263531	0.91058187	-0.13851367	1.1703174	0.91095243	0.10750098	0.9720373	0.91775966	-0.050693148	1.1043178	1.3806955	-0.17476548	1.1118864	1.3715948	0.14551341	1.0259645	1.4014245	-0.017214303	0.90494698	1.1059623	-0.24156381	1.1767239	1.0254359	0.24548647	0.9443504	0.87443887	-0.33825116	1.4304717	1.0518123	0.24607998
458	1.828	1.6353744	0.11907605	-0.14849887	0.90022991	0.03816954	0.041060305	1.5031811	0.085977985	-0.17236399	0.76751231	0.080148248	0.08465094	1.5088369	0.11076586	-0.092842083	0.79148173	0.10072249	-0.0012532407	1.4620026	0.033188652	-0.12661283	0.71040076	0.068917683	0.04012922	1.3438756	0.44610423	-0.18416597	0.97787542	0.42542373	0.11140119	1.3685148	0.42118482	-0.065544561	1.0037223	0.42169472	-0.015282119	1.2019634	0.7993606	-0.22071545	1.0798819	0.82472662	0.15507825	1.2327139	0.9097105	-0.13883448	1.1760563	0.910012	0.10699984	0.97739617	0.91722652	-0.051541771	1.1095302	1.3800261	-0.175626	1.1177681	1.3706253	0.14468236	1.0314262	1.4005463	-0.017924186	0.91038296	1.1048195	-0.24162972	1.1823254	1.0240185	0.24348441	0.95024132	0.87340013	-0.33861319	1.4360856	1.0500088	0.24336859
459	1.832	1.6399662	0.11713134	-0.14943043	0.90048955	0.038225677	0.041097106	1.5076076	0.084677417	-0.17246386	0.76870661	0.082003955	0.084768867	1.5136048	0.10933647	-0.092980614	0.79270463	0.10219858	-0.0010706115	1.4663214	0.032097374	-0.12677913	0.71129817	0.071473585	0.040295442	1.3508409	0.4458776	-0.18455533	0.98208319	0.42509908	0.11092465	1.3756126	0.42130222	-0.066073208	1.0086403	0.42083686	-0.015610513	1.2082585	0.79916715	-0.22141504	1.0850071	0.82408308	0.15388495	1.2391007	0.90891791	-0.13917979	1.1818756	0.90911587	0.10645734	0.98319124	0.91664953	-0.052591427	1.1147853	1.3794094	-0.17651454	1.1237033	1.3697147	0.1438233	1.0369388	1.3997183	-0.018675547	0.91589778	1.103709	-0.24170668	1.1878625	1.022646	0.24148595	0.95627387	0.87237893	-0.33895737	1.4416507	1.0481194	0.24065179
460	1.836	1.6442368	0.11496757	-0.15027656	0.90077757	0.038275279	0.041155101	1.5117127	0.083262643	-0.17253063	0.76993941	0.083916878	0.084930604	1.5180476	0.10783745	-0.093076661	0.79401982	0.10375292	-0.00085483047	1.4702589	0.030888835	-0.1267606	0.71230031	0.074147968	0.040473498	1.3578035	0.44565619	-0.18498168	0.98640029	0.42477494	0.11045564	1.3827526	0.42144999	-0.066597727	1.0136082	0.4200045	-0.015950319	1.2144845	0.79905019	-0.22214085	1.0902028	0.82346689	0.15274058	1.2455174	0.90821111	-0.13955167	1.1877845	0.90826056	0.10587271	0.98923064	0.91606475	-0.053720955	1.1200639	1.3788472	-0.17743541	1.1296974	1.3688575	0.14292958	1.0424952	1.3989353	-0.019450104	0.92148374	1.1026242	-0.24179003	1.1933793	1.0213225	0.23947102	0.96244697	0.87137306	-0.33928342	1.4471657	1.0461511	0.23792985
461	1.84	1.6482003	0.11261618	-0.15100384	0.90108887	0.038321665	0.041225905	1.515517	0.081741729	-0.17255223	0.77118226	0.085912318	0.085151669	1.5222102	0.10628617	-0.093122383	0.79543701	0.10538092	-0.00061313899	1.4738656	0.029581697	-0.12665074	0.71340472	0.076942361	0.040683732	1.3647253	0.44542598	-0.18545356	0.9908369	0.42445537	0.10999642	1.3899057	0.42160972	-0.067118462	1.0186431	0.41920161	-0.016294106	1.2206622	0.79899126	-0.22288867	1.0954739	0.82285106	0.15163039	1.2519709	0.90759316	-0.13997655	1.1937837	0.90743791	0.10524456	0.99539612	0.91550301	-0.054853764	1.1253629	1.3783325	-0.17839019	1.1357411	1.3680523	0.14199885	1.0480877	1.3981893	-0.020242903	0.92714348	1.1015554	-0.24188066	1.1989633	1.0200695	0.23740156	0.96875693	0.87037946	-0.33959146	1.4526343	1.0441066	0.23521295
462	1.844	1.6518762	0.11011794	-0.15161133	0.90140912	0.038358674	0.041294685	1.5190421	0.080129193	-0.17251636	0.77244832	0.087997218	0.085442545	1.526124	0.10468899	-0.093115193	0.79696459	0.10708156	-0.00034994809	1.4771723	0.028201771	-0.12648643	0.71460143	0.079864079	0.040960652	1.3715793	0.44517613	-0.18596758	0.99542843	0.42414934	0.10955065	1.3970476	0.42176897	-0.067640544	1.0237597	0.41843418	-0.016632033	1.2268232	0.798972	-0.22365552	1.1008347	0.82221687	0.15051884	1.2584627	0.90706566	-0.14047535	1.1998701	0.90664264	0.10457576	1.001658	0.91498019	-0.05596798	1.1306949	1.377854	-0.17937272	1.1418185	1.3673058	0.14103359	1.0537142	1.3974762	-0.021061465	0.93288222	1.1004972	-0.2419857	1.2046994	1.0189397	0.23525583	0.97519697	0.8693972	-0.3398852	1.4580639	1.0419853	0.23250771
463	1.848	1.6552855	0.10751966	-0.15211489	0.90172611	0.038375309	0.04134422	1.5223099	0.078441047	-0.17241823	0.7738066	0.090153573	0.085800052	1.5297998	0.10304407	-0.093054489	0.79861177	0.10885671	-6.7850468e-05	1.4801752	0.026816971	-0.12625702	0.71588099	0.082924146	0.04132864	1.3783619	0.44490121	-0.1865079	1.000198	0.42386139	0.10911718	1.4041541	0.4219203	-0.068168964	1.0289685	0.41770702	-0.016955587	1.2329985	0.79897672	-0.22443706	1.1063115	0.82156927	0.14938941	1.2649902	0.90663072	-0.14103569	1.2060407	0.90587598	0.10387429	1.0080177	0.91450423	-0.057058969	1.1360651	1.3774067	-0.18037661	1.1479211	1.3666219	0.14003582	1.0593768	1.396797	-0.021915771	0.93868825	1.0994514	-0.24210702	1.2105631	1.0179931	0.23309108	0.98176347	0.86842757	-0.34017011	1.4634618	1.0397853	0.2298102
464	1.852	1.6584536	0.10487074	-0.15255644	0.90204607	0.038369171	0.04136579	1.5253534	0.076698466	-0.17227949	0.77538373	0.092365508	0.086162147	1.533243	0.10133887	-0.092941113	0.80038734	0.11070456	0.00022863008	1.4828277	0.025584038	-0.12595918	0.7172572	0.086120927	0.04175675	1.385092	0.4446011	-0.18705844	1.0051422	0.42358743	0.10869283	1.4111984	0.42205725	-0.06870604	1.0342783	0.41701886	-0.017261974	1.2392085	0.79899501	-0.22522691	1.1119278	0.82092514	0.14824424	1.2715542	0.90629112	-0.14163337	1.2122947	0.90514086	0.10314878	1.0144035	0.91409137	-0.058081675	1.1414659	1.3769923	-0.18140225	1.1540496	1.3659949	0.13900322	1.0650789	1.3961506	-0.022809258	0.94452641	1.0984235	-0.24223071	1.2163909	1.0172176	0.23101433	0.98845877	0.86747253	-0.34044973	1.4688322	1.0375049	0.22711769
465	1.856	1.6614263	0.10219283	-0.15302224	0.90239765	0.03835517	0.041362492	1.5282369	0.074935129	-0.17217216	0.77734371	0.094650764	0.086426499	1.5364706	0.099556856	-0.09277557	0.80229868	0.11261796	0.00053303243	1.4850658	0.024690768	-0.1256238	0.71877256	0.08943227	0.042153187	1.3918003	0.4442797	-0.18761709	1.010251	0.42332222	0.10827855	1.4181635	0.42217323	-0.069257913	1.0396942	0.41636396	-0.017556328	1.2454695	0.79902349	-0.22602179	1.1176787	0.82029437	0.14709079	1.278159	0.90604869	-0.14226082	1.2186302	0.9044361	0.10240318	1.0206583	0.91376544	-0.058952141	1.146893	1.3766099	-0.18245298	1.1602043	1.3654174	0.13793125	1.0708231	1.395532	-0.023739613	0.95038294	1.0974129	-0.24234937	1.2220269	1.0164948	0.22905332	0.99528402	0.86653223	-0.34072296	1.4741734	1.0351414	0.2244365
466	1.86	1.6642823	0.099418219	-0.15360719	0.90280729	0.038353097	0.041336076	1.5310445	0.073197506	-0.1721972	0.77979138	0.097049079	0.086566985	1.539518	0.097700441	-0.092557551	0.80435108	0.11459021	0.00084119394	1.4868746	0.024194432	-0.12529462	0.72046808	0.092834916	0.042437494	1.3985133	0.44394089	-0.18819636	1.0155204	0.42306502	0.10787504	1.4250518	0.42226059	-0.069837097	1.0452187	0.41573793	-0.017846322	1.2517999	0.79906379	-0.22682531	1.1235341	0.8196744	0.14593226	1.2848011	0.90590204	-0.14292742	1.2250438	0.90375613	0.10163837	1.0267311	0.91352684	-0.059648893	1.1523514	1.3762525	-0.18352879	1.1663797	1.3648858	0.1368174	1.0766095	1.3949377	-0.024706438	0.95628767	1.0964109	-0.24247813	1.2274545	1.0157022	0.22713359	1.0022327	0.86560271	-0.34098621	1.4794793	1.0326939	0.22177344
467	1.864	1.6671264	0.096329969	-0.15429817	0.90327042	0.038365594	0.041282695	1.5338111	0.071541743	-0.17237851	0.78260763	0.099583658	0.08667685	1.5424346	0.095823563	-0.09228902	0.80654995	0.11661802	0.0011530184	1.488321	0.023983833	-0.12499566	0.72235606	0.09632764	0.042603878	1.4052169	0.44358081	-0.18880632	1.0209501	0.42281736	0.10747975	1.4318725	0.42230832	-0.070454513	1.0508549	0.41513732	-0.018134027	1.2582117	0.7991159	-0.22764386	1.129481	0.81905294	0.14476612	1.2914633	0.90584597	-0.14364255	1.2315345	0.90309278	0.10085422	1.0329755	0.91329745	-0.060352977	1.157849	1.3759129	-0.18462615	1.1725658	1.3644006	0.13566337	1.0824354	1.3943669	-0.025708457	0.96225454	1.0954117	-0.24262569	1.2327494	1.0148283	0.22519371	1.0092949	0.86467917	-0.34124011	1.4847442	1.0301667	0.21912638
